<svg width="811" height="916" version="1.1" xmlns="http://www.w3.org/2000/svg" desc="Created with imagetracer.js version 1.2.6" ><path fill="rgb(255,255,255)" stroke="rgb(255,255,255)" stroke-width="1" opacity="1" d="M 497.5 20 Q 524.2 18.3 534 33.5 L 541 48.5 L 541 63.5 Q 537.4 77.4 527.5 85 L 519.5 90 L 510 92 L 510 84.5 L 511.5 84 Q 521.6 81.6 527 74.5 L 533 62.5 L 533 49.5 Q 530.1 39.9 523.5 34 L 511.5 28 L 498.5 28 Q 489.6 30.6 484 36.5 L 477 49.5 L 477 62.5 L 485 78.5 L 484 81 Q 481 79.8 482 83.5 L 476 78.5 L 469 63.5 L 469 48.5 Q 472.6 34.6 482.5 27 L 497.5 20 Z " /><path fill="rgb(255,255,255)" stroke="rgb(255,255,255)" stroke-width="1" opacity="1" d="M 424.5 21 Q 438.2 19.3 446.5 23 Q 455.9 27.6 462 35.5 L 467 46.5 L 467 61.5 Q 463.3 74.3 453.5 81 Q 450.5 81.9 452 77.5 L 450 73.5 L 458 63.5 Q 460.5 58 459 48.5 Q 456.9 39.6 450.5 35 Q 443.2 26.8 425.5 29 Q 414.6 31.6 409 39.5 Q 403.3 45.8 405 59.5 Q 407.1 68.4 413.5 73 L 421 77 L 420 85 Q 408.2 82.1 402 72.5 L 397 61.5 L 397 46.5 L 402 35.5 L 409.5 28 Q 415.2 22.7 424.5 21 Z " /><path fill="rgb(255,255,255)" stroke="rgb(255,255,255)" stroke-width="1" opacity="1" d="M 390.5 137 L 411.5 137 L 418.5 139 L 434.5 140 L 441.5 142 L 446 146.5 L 447 153 L 460.5 153 Q 464.7 146.8 472.5 144 L 506.5 144 L 507.5 145 L 520.5 146 L 528 151.5 L 531 157.5 L 531 172.5 L 527 186.5 L 519.5 198 L 513.5 203 L 506.5 205 L 481.5 205 Q 472.5 201 467 193.5 L 463 186.5 L 462 179.5 L 460 176.5 L 459 164 Q 455.6 164.8 454.5 162 L 448.5 162 L 447 163.5 L 446 175.5 L 433.5 190 L 422.5 197 L 393.5 197 Q 385.2 193.8 380 187.5 L 376 176.5 L 375 148.5 Q 378 147.5 377 142.5 L 379.5 140 L 390.5 137 Z M 396 146 L 388 148 L 384 154 L 385 172 L 389 183 L 399 188 L 418 188 L 429 181 Q 435 176 438 168 Q 439 157 437 151 L 430 149 L 414 148 L 408 146 L 396 146 Z M 478 153 L 473 155 L 468 163 L 468 168 L 471 175 L 471 179 L 476 189 L 487 196 Q 500 198 509 194 L 515 188 L 522 169 L 522 163 L 519 156 L 502 153 L 478 153 Z " /><path fill="rgb(255,255,255)" stroke="rgb(255,255,255)" stroke-width="1" opacity="1" d="M 302.5 212 Q 308 211 309 214.5 L 309 219.5 L 302.5 226 L 300 227.5 L 270 266.5 L 262 284.5 L 261 298.5 L 259 303.5 L 248.5 317 L 229 332.5 L 217 354.5 L 214 361.5 L 214 365.5 L 211.5 368 Q 206 369 205 365.5 L 206 354.5 L 217 331.5 L 229.5 318 L 244 307.5 L 252 293.5 L 253 280.5 L 261 261.5 L 291 222.5 L 299.5 214 L 302.5 212 Z " /><path fill="rgb(255,255,255)" stroke="rgb(255,255,255)" stroke-width="1" opacity="1" d="M 387.5 213 L 396.5 213 L 399 215.5 Q 400 221 396.5 222 L 388.5 223 L 379.5 228 L 358.5 235 L 356.5 237 L 350.5 238 L 332.5 250 L 325 257.5 L 320 269.5 Q 321 277.5 318 281.5 L 317 302.5 L 318 303.5 L 318 312.5 Q 320.7 314.8 320 320.5 L 323 325.5 L 325 336.5 L 330 349.5 L 342 365.5 L 344 370.5 L 349 375.5 L 353 383.5 L 353 391.5 Q 352 395 346.5 394 L 344 391.5 L 344 387.5 L 341 381.5 L 335 375.5 Q 331.3 365.7 324 359.5 L 319 346.5 L 317 344.5 L 314 330.5 L 309 317.5 L 308 287.5 L 309 286.5 L 309 276.5 L 311 271.5 L 311 264.5 L 317 250.5 L 323.5 244 L 345.5 229 L 351.5 228 L 353.5 226 L 364.5 223 L 387.5 213 Z " /><path fill="rgb(255,255,255)" stroke="rgb(255,255,255)" stroke-width="1" opacity="1" d="M 484.5 242 L 488.5 242 L 500.5 250 L 530 276.5 L 539 293.5 L 543 306.5 L 543 329.5 L 536 344.5 L 532 351.5 L 527 356.5 L 527 358.5 L 506 384.5 L 494.5 396 L 490 399.5 L 478.5 412 L 470.5 417 L 465.5 417 Q 462 416 463 410.5 L 477 399.5 L 488.5 387 L 491 385.5 L 515 357.5 L 527 339.5 L 534 324.5 L 534 311.5 L 532 303.5 L 524 285.5 L 518.5 279 L 482 248.5 Q 481 243 484.5 242 Z " /><path fill="rgb(255,255,255)" stroke="rgb(255,255,255)" stroke-width="1" opacity="1" d="M 566.5 396 Q 573 395 574 399.5 Q 575.5 411 581 418.5 L 582 427.5 L 584 429.5 Q 584.4 439.1 588 445.5 Q 586.8 450.3 589 451.5 L 589 480 L 591.5 480 L 595.5 477 L 598.5 477 L 603.5 473 L 616.5 467 L 622.5 466 L 626.5 463 L 634.5 463 L 644.5 460 L 667.5 459 Q 671 460 670 465.5 L 667.5 468 L 648.5 469 L 639.5 472 L 631.5 472 Q 627.7 475.7 620.5 476 L 597 488.5 L 594.5 492 L 591 494.5 L 583.5 505 Q 578 506 577 502.5 L 577 493.5 L 579 491.5 L 580 486.5 L 580 456.5 L 576 437.5 L 573 432.5 L 572 423.5 L 570 421.5 L 570 418.5 L 567 413.5 L 566 406.5 L 564 403.5 L 564 398.5 L 566.5 396 Z " /><path fill="rgb(255,255,255)" stroke="rgb(255,255,255)" stroke-width="1" opacity="1" d="M 352.5 406 Q 358.8 404.8 360 408.5 L 362 414.5 L 363 426.5 L 367 440.5 L 368 459.5 L 371 476.5 L 371 538.5 L 368 543.5 L 367 550.5 L 362 562.5 L 362 565.5 L 356.5 572 Q 350.3 573.3 349 569.5 L 349 565.5 L 353 560.5 L 353 557.5 L 356 552.5 Q 357.2 541.2 362 533.5 L 362 481.5 L 359 464.5 L 358 444.5 L 354 431.5 L 353 419.5 L 350 412.5 L 350 408.5 L 352.5 406 Z " /><path fill="rgb(255,255,255)" stroke="rgb(255,255,255)" stroke-width="1" opacity="1" d="M 442.5 425 Q 448 424 449 427.5 L 448 434.5 L 438 445.5 L 436 451.5 L 426 467.5 L 424 476.5 L 421 481.5 L 419 496.5 L 417 499.5 L 417 532.5 L 414.5 535 Q 409 536 408 532.5 L 408 494.5 L 410 491.5 L 412 476.5 L 415 471.5 L 420 456.5 Q 426.5 450.5 429 440.5 L 442.5 425 Z " /><path fill="rgb(255,255,255)" stroke="rgb(255,255,255)" stroke-width="1" opacity="1" d="M 193.5 805 L 207.5 805 L 213 809.5 L 217 818.5 L 217 832.5 L 209.5 839 L 190.5 839 L 179 824.5 L 179 817.5 Q 180.5 814 186 814.5 L 185 809.5 L 187.5 807 Q 192.5 808 193.5 805 Z M 199 814 L 196 816 L 187 817 L 191 823 L 191 826 L 196 830 Q 205 832 208 828 L 208 824 Q 204 822 205 816 Q 204 813 199 814 Z " /><path fill="rgb(255,255,255)" stroke="rgb(255,255,255)" stroke-width="1" opacity="1" d="M 601.5 810 Q 608.8 808.3 610.5 812 Q 612 809.5 617.5 811 L 626.5 815 L 644 828.5 L 654 844.5 L 654 849.5 Q 653 853 647.5 852 L 642 845.5 L 639 838.5 L 631.5 831 L 609.5 818 L 606 819 L 602.5 824 L 598 826 L 594 831.5 L 594 835.5 L 583.5 849 L 581.5 850 L 567.5 850 L 565 847.5 L 565 826.5 L 576.5 818 L 582.5 818 Q 583.5 815 588.5 816 L 591.5 817 Q 599.1 816.1 601.5 810 Z M 582 827 L 574 831 L 574 841 L 578 841 L 585 831 Q 587 825 582 827 Z " /><path fill="rgb(255,255,255)" stroke="rgb(255,255,255)" stroke-width="1" opacity="1" d="M 162.5 812 L 172.5 812 L 175 814.5 Q 176 820 172.5 821 L 167.5 821 Q 164.7 824.7 158.5 825 L 150 832.5 L 146 846.5 L 143.5 849 Q 138 850 137 846.5 L 137 839.5 L 141 831.5 L 141 827.5 L 150.5 818 L 162.5 812 Z " /><path fill="rgb(255,255,255)" stroke="rgb(255,255,255)" stroke-width="1" opacity="1" d="M 524.5 851 L 528.5 851 L 539.5 855 L 566 876.5 L 566 878.5 L 574 888.5 L 575 893 L 581 897.5 L 586.5 904 L 595.5 907 L 600.5 907 L 607.5 911 L 618.5 913 L 622 915.5 L 591.5 916 L 581.5 913 L 572 903.5 Q 572.8 901.3 570.5 902 L 566 897.5 L 565 893.5 L 553.5 878 L 534.5 864 L 524.5 861 L 522 858.5 Q 520.8 852.3 524.5 851 Z " /><path fill="rgb(255,255,255)" stroke="rgb(255,255,255)" stroke-width="1" opacity="1" d="M 253.5 853 Q 259.8 851.8 261 855.5 Q 262.3 861.8 258.5 863 L 253.5 864 Q 247.5 872 237.5 876 L 223 889.5 L 215 900.5 L 214 905.5 Q 210.5 906 211 910.5 L 206.5 915 L 204.5 916 L 189.5 916 L 192 912.5 L 194.5 909 L 202 906 L 206 895.5 Q 211.7 891.2 214 883.5 L 219.5 878 Q 228.5 868 241.5 862 L 248.5 855 L 253.5 853 Z " /><path fill="rgb(0,0,0)" stroke="rgb(0,0,0)" stroke-width="1" opacity="0" d="M 0 0 L 811 0 L 811 916 L 622.5 916 L 618.5 913 L 610.5 912 L 600.5 907 L 595.5 907 L 588.5 905 L 581 898.5 L 576.5 893 Q 574.3 893.8 575 891.5 L 566 878.5 L 566 876.5 L 559.5 870 L 539.5 855 L 528.5 851 L 524.5 851 Q 520.8 852.3 522 858.5 L 524.5 861 L 534.5 864 L 557 881.5 Q 559.2 889.3 565 893.5 L 566 897.5 L 570.5 902 Q 572.8 901.3 572 903.5 L 581.5 913 L 591 915.5 L 205.5 916 L 205.5 915 L 211 910.5 L 217 897.5 L 230.5 882 L 246.5 871 L 253.5 864 Q 259.1 864.1 261 860.5 Q 262.3 854.3 258.5 853 L 253.5 853 L 248.5 855 L 241.5 862 L 229.5 869 L 214 883.5 Q 211.7 891.2 206 895.5 L 202 906 Q 195.4 906.5 192 911.5 L 188.5 916 L 0.5 916 L 0 915.5 L 0 0 Z M 498 20 L 483 27 Q 473 35 469 49 L 469 64 L 476 79 L 482 84 Q 481 80 484 81 L 485 79 L 477 63 L 477 50 L 484 37 Q 490 31 499 28 L 512 28 L 524 34 Q 530 40 533 50 L 533 63 L 527 75 Q 522 82 512 84 L 510 85 L 510 92 L 520 90 L 528 85 Q 537 77 541 64 L 541 49 L 534 34 Q 524 18 498 20 Z M 425 21 Q 415 23 410 28 L 402 36 L 397 47 L 397 62 L 402 73 Q 408 82 420 85 L 421 77 L 414 73 Q 407 68 405 60 Q 403 46 409 40 Q 415 32 426 29 Q 443 27 451 35 Q 457 40 459 49 Q 461 58 458 64 L 450 74 L 452 78 Q 450 82 454 81 Q 463 74 467 62 L 467 47 L 462 36 Q 456 28 447 23 Q 438 19 425 21 Z M 391 137 L 380 140 L 377 143 Q 378 148 375 149 L 376 177 L 380 188 Q 385 194 394 197 L 423 197 L 434 190 L 446 176 L 447 164 L 449 162 L 455 162 Q 456 165 459 164 L 460 177 L 462 180 L 463 187 L 467 194 Q 472 201 482 205 L 507 205 L 514 203 L 520 198 L 527 187 L 531 173 L 531 158 L 528 152 L 521 146 L 508 145 L 507 144 L 473 144 Q 465 147 461 153 L 447 153 L 446 147 L 442 142 L 435 140 L 419 139 L 412 137 L 391 137 Z M 303 212 L 300 214 L 291 223 L 261 262 L 253 281 L 252 294 L 244 308 L 230 318 L 217 332 L 206 355 L 205 366 Q 206 369 212 368 L 214 366 L 214 362 L 217 355 L 229 333 L 249 317 L 259 304 L 261 299 L 262 285 L 270 267 L 300 228 L 303 226 L 309 220 L 309 215 Q 308 211 303 212 Z M 388 213 L 365 223 L 354 226 L 352 228 L 346 229 L 324 244 L 317 251 L 311 265 L 311 272 L 309 277 L 309 287 L 308 288 L 309 318 L 314 331 L 317 345 L 319 347 L 324 360 Q 331 366 335 376 L 341 382 L 344 388 L 344 392 L 347 394 Q 352 395 353 392 L 353 384 L 349 376 L 344 371 L 342 366 L 330 350 L 325 337 L 323 326 L 320 321 Q 321 315 318 313 L 318 304 L 317 303 L 318 282 Q 321 278 320 270 L 325 258 L 333 250 L 351 238 L 357 237 L 359 235 L 380 228 L 389 223 L 397 222 Q 400 221 399 216 L 397 213 L 388 213 Z M 485 242 Q 481 243 482 249 L 519 279 L 524 286 L 532 304 L 534 312 L 534 325 L 527 340 L 515 358 L 491 386 L 489 387 L 477 400 L 463 411 Q 462 416 466 417 L 471 417 L 479 412 L 490 400 L 495 396 L 506 385 L 527 359 L 527 357 L 532 352 L 536 345 L 543 330 L 543 307 L 539 294 L 530 277 L 501 250 L 489 242 L 485 242 Z M 567 396 L 564 399 L 564 404 L 566 407 L 567 414 L 570 419 L 570 422 L 572 424 L 573 433 L 576 438 L 580 457 L 580 487 L 579 492 L 577 494 L 577 503 Q 578 506 584 505 L 591 495 L 595 492 L 597 489 L 621 476 Q 628 476 632 472 L 640 472 L 649 469 L 668 468 L 670 466 Q 671 460 668 459 L 645 460 L 635 463 L 627 463 L 623 466 L 617 467 L 604 473 L 599 477 L 596 477 L 592 480 L 589 480 L 589 452 Q 587 450 588 446 Q 584 439 584 430 L 582 428 L 581 419 Q 576 411 574 400 Q 573 395 567 396 Z M 353 406 L 350 409 L 350 413 L 353 420 L 354 432 L 358 445 L 359 465 L 362 482 L 362 534 Q 357 541 356 553 L 353 558 L 353 561 L 349 566 L 349 570 Q 350 573 357 572 L 362 566 L 362 563 L 367 551 L 368 544 L 371 539 L 371 477 L 368 460 L 367 441 L 363 427 L 362 415 L 360 409 Q 359 405 353 406 Z M 443 425 L 429 441 Q 427 451 420 457 L 415 472 L 412 477 L 410 492 L 408 495 L 408 533 Q 409 536 415 535 L 417 533 L 417 500 L 419 497 L 421 482 L 424 477 L 426 468 L 436 452 L 438 446 L 448 435 L 449 428 Q 448 424 443 425 Z M 194 805 Q 193 808 188 807 L 185 810 Q 184 815 188 816 L 196 816 Q 198 813 204 814 L 208 824 L 208 828 Q 205 832 196 830 L 191 826 L 191 823 L 186 815 Q 180 814 179 818 L 179 825 L 191 839 L 210 839 L 217 833 L 217 819 L 213 810 L 208 805 L 194 805 Z M 602 810 Q 599 816 592 817 L 589 816 Q 584 815 583 818 L 577 818 L 565 827 L 565 848 L 568 850 L 582 850 L 584 849 L 594 836 L 594 832 L 598 826 L 603 824 L 606 819 L 610 818 L 632 831 L 639 839 L 642 846 L 648 852 Q 653 853 654 850 L 654 845 L 644 829 L 627 815 L 618 811 Q 612 810 611 812 Q 609 808 602 810 Z M 163 812 L 151 818 L 141 828 L 141 832 L 137 840 L 137 847 Q 138 850 144 849 L 146 847 L 150 833 L 159 825 Q 165 825 168 821 L 173 821 Q 176 820 175 815 L 173 812 L 163 812 Z " /><path fill="rgb(0,0,0)" stroke="rgb(0,0,0)" stroke-width="1" opacity="0" d="M 395.5 146 L 407.5 146 L 413.5 148 L 429.5 149 L 437 151 Q 439.3 156.6 438 167.5 Q 434.8 175.8 428.5 181 L 417.5 188 L 398.5 188 L 389 183 L 385 171.5 L 384 153.5 L 387.5 148 L 395.5 146 Z " /><path fill="rgb(0,0,0)" stroke="rgb(0,0,0)" stroke-width="1" opacity="0" d="M 477.5 153 L 501.5 153 L 519 156 L 522 162.5 L 522 168.5 L 515 187.5 L 508.5 194 Q 500.2 197.7 486.5 196 L 476 188.5 L 471 178.5 L 471 174.5 L 468 167.5 L 468 162.5 L 472.5 155 L 477.5 153 Z " /><path fill="rgb(0,0,0)" stroke="rgb(0,0,0)" stroke-width="1" opacity="0" d="M 581.5 827 Q 586.8 825.3 585 830.5 L 578 841 L 574 841 L 574 831 L 581.5 827 Z " /></svg>